<?xml version="1.0" encoding="UTF-8" standalone="no"?>
<!-- Created with Inkscape (http://www.inkscape.org/) -->

<svg
   xmlns:dc="http://purl.org/dc/elements/1.1/"
   xmlns:cc="http://creativecommons.org/ns#"
   xmlns:rdf="http://www.w3.org/1999/02/22-rdf-syntax-ns#"
   xmlns:svg="http://www.w3.org/2000/svg"
   xmlns="http://www.w3.org/2000/svg"
   xmlns:sodipodi="http://sodipodi.sourceforge.net/DTD/sodipodi-0.dtd"
   xmlns:inkscape="http://www.inkscape.org/namespaces/inkscape"
   width="210mm"
   height="297mm"
   viewBox="0 0 210 297"
   version="1.1"
   id="svg8"
   inkscape:version="0.92.1 r15371"
   sodipodi:docname="talk.svg">
  <sodipodi:namedview
     id="base"
     pagecolor="#ffffff"
     bordercolor="#666666"
     borderopacity="1.0"
     inkscape:pageopacity="0.0"
     inkscape:pageshadow="2"
     inkscape:zoom="0.49497475"
     inkscape:cx="289.76284"
     inkscape:cy="731.48748"
     inkscape:document-units="mm"
     inkscape:current-layer="layer1"
     showgrid="false"
     inkscape:window-width="1920"
     inkscape:window-height="1017"
     inkscape:window-x="-8"
     inkscape:window-y="-8"
     inkscape:window-maximized="1" />
  <defs
     id="defs2" />
  <metadata
     id="metadata5">
    <rdf:RDF>
      <cc:Work
         rdf:about="">
        <dc:format>image/svg+xml</dc:format>
        <dc:type
           rdf:resource="http://purl.org/dc/dcmitype/StillImage" />
        <dc:title></dc:title>
      </cc:Work>
    </rdf:RDF>
  </metadata>
  <g
     id="layer1"
     inkscape:groupmode="layer"
     inkscape:label="Layer 1">
    <path
       id="path8164"
       d="m 75.940519,172.40019 c 0,0 4.77863,-1.03346 4.77863,-1.03346 0,0 0.0257,0.0282 0.0257,0.0282 0.0682,-1.0472 0.31546,-2.17296 0.68562,-3.15609 0.64936,-1.71111 1.75509,-3.20473 3.10345,-4.18379 0,0 -0.81796,-4.60001 -0.81796,-4.60001 0,0 -3.21308,4.08426 -3.21308,4.08426 0,0 -4.81962,-0.67476 -4.81962,-0.67476 0,0 2.42555,4.67464 2.42555,4.67464 0,0 -2.16828,4.86103 -2.16828,4.86103 m -7.77321,12.93043 c 0,0 4.82378,-1.07943 4.82378,-1.07943 0,0 0.0259,0.0279 0.0259,0.0279 0.0605,-1.04776 0.22182,-1.99661 0.62909,-2.96058 0.71394,-1.6775 1.85898,-3.04202 3.25869,-3.92319 0,0 -0.58195,-4.70742 -0.58195,-4.70742 0,0 -3.41254,3.90594 -3.41254,3.90594 0,0 -4.7853,-0.9516 -4.7853,-0.9516 0,0 2.2467,4.82306 2.2467,4.82306 0,0 -2.20436,4.86528 -2.20436,4.86528 m -5.97727,7.52917 c 0,0 4.92518,-0.38845 4.92518,-0.38845 0,0 0.0227,0.0313 0.0227,0.0313 0.17233,-1.03169 -4.45491,-7.3568 -4.93129,-6.43449 -0.83419,1.60453 4.96904,5.15888 6.45038,4.47091 0,0 -0.11775,-4.9038 -0.11775,-4.9038 0,0 -3.83774,3.52357 -3.83774,3.52357 0,0 2.6097,3.06324 2.6097,3.06324 0,0 -2.39535,-3.87862 -2.39535,-3.87862 0,0 -2.72584,4.51632 -2.72584,4.51632 m -9.97429,10.8334 c 0,0 4.94644,0.20889 4.94644,0.20889 0,0 0.0198,0.0338 0.0198,0.0338 0.26486,-1.00606 0.78292,-2.04012 1.321,-2.91759 0.94153,-1.52602 2.38081,-2.43146 3.89337,-3.02554 0,0 0.12906,-4.7777 0.12906,-4.7777 0,0 -4.03774,3.1297 -4.03774,3.1297 0,0 -4.65234,-1.91212 -4.65234,-1.91212 0,0 1.5178,5.11597 1.5178,5.11597 0,0 -3.13734,4.14459 -3.13734,4.14459 m -10.20452,10.6537 c 0,0 4.94928,0.0627 4.94928,0.0627 0,0 0.0197,0.0339 0.0197,0.0339 0.26689,-1.00537 0.60649,-1.89529 1.1947,-2.73028 1.02869,-1.45171 2.39459,-2.47058 3.93676,-2.95701 0,0 0.40725,-4.67217 0.40725,-4.67217 0,0 -4.12718,2.83541 -4.12718,2.83541 0,0 -4.48911,-2.12917 -4.48911,-2.12917 0,0 1.25758,5.26121 1.25758,5.26121 0,0 -3.14896,4.29545 -3.14896,4.29545 m 7.73978,-7.73634 c 0,0 -5.29477,-1.12672 -5.29477,-1.12672 0,0 -0.0174,-0.0354 -0.0174,-0.0354 -0.33106,0.98037 -0.63962,1.641 -1.31555,2.38554 -1.18115,1.29359 -2.68552,2.15543 -4.26526,2.4477 0,0 3.38914,4.5118 3.38914,4.5118 0,0 0.13311,-2.22356 0.13311,-2.22356 0,0 4.21571,2.74136 4.21571,2.74136 0,0 -0.66051,-5.39374 -0.66051,-5.39374 0,0 3.81558,-3.30699 3.81558,-3.30699 m 11.29023,-8.76552 c 0,0 -4.80064,-0.89284 -4.80064,-0.89284 0,0 -0.0156,-0.0365 -0.0156,-0.0365 -0.38093,0.95691 -0.89856,1.80643 -1.56417,2.56279 -1.16322,1.31428 -2.48001,2.04518 -4.07127,2.23998 0,0 -1.06337,4.43823 -1.06337,4.43823 0,0 4.4422,-1.96918 4.4422,-1.96918 0,0 4.2672,2.7057 4.2672,2.7057 0,0 -0.72051,-5.36317 -0.72051,-5.36317 0,0 3.52616,-3.68501 3.52616,-3.68501 m 11.19236,-9.10888 c 0,0 -4.79533,-0.92914 -4.79533,-0.92914 0,0 -0.0154,-0.0366 -0.0154,-0.0366 -0.38653,0.95401 -0.92024,1.82226 -1.58626,2.57821 -1.16394,1.31356 -2.62467,2.16019 -4.2043,2.4532 0,0 -0.86305,4.62389 -0.86305,4.62389 0,0 4.38479,-2.33849 4.38479,-2.33849 0,0 4.25364,2.67879 4.25364,2.67879 0,0 -0.71778,-5.36386 -0.71778,-5.36386 0,0 3.54368,-3.66599 3.54368,-3.66599 m 11.55403,-8.48158 c 0,0 -4.68335,-1.20723 -4.68335,-1.20723 0,0 -0.0134,-0.0376 -0.0134,-0.0376 -0.43681,0.92555 -0.76548,1.56385 -1.52361,2.19816 -1.3239,1.10106 -3.23854,2.17914 -4.81392,2.5004 0,0 -0.78926,4.60646 -0.78926,4.60646 0,0 4.34234,-2.3844 4.34234,-2.3844 0,0 3.70066,3.27851 3.70066,3.27851 0,0 0.0848,-5.52957 0.0848,-5.52957 0,0 3.69572,-3.42473 3.69572,-3.42473 m 11.58794,-8.37663 c 0,0 -4.67579,-1.11735 -4.67579,-1.11735 0,0 -0.0139,-0.0374 -0.0139,-0.0374 -0.42571,0.93214 -0.79108,1.59045 -1.5338,2.24778 -1.29717,1.14126 -3.13196,2.00708 -4.71486,2.27563 0,0 -0.90811,4.57785 -0.90811,4.57785 0,0 4.44558,-2.18377 4.44558,-2.18377 0,0 3.95109,3.17572 3.95109,3.17572 0,0 -0.17532,-5.42345 -0.17532,-5.42345 0,0 3.62506,-3.51502 3.62506,-3.51502 m 10.949811,-9.37249 c 0,0 -4.6606,-0.92536 -4.6606,-0.92536 0,0 -0.0149,-0.0369 -0.0149,-0.0369 -0.3982,0.94769 -1.05284,1.83802 -1.707241,2.60689 -1.14374,1.33611 -2.65303,2.33429 -4.2168,2.7217 0,0 -0.61868,4.58389 -0.61868,4.58389 0,0 4.24192,-2.51309 4.24192,-2.51309 0,0 4.276761,2.55349 4.276761,2.55349 0,0 -0.7691,-5.30938 -0.7691,-5.30938 0,0 3.46867,-3.68129 3.46867,-3.68129 m 11.63407,-8.67118 c 0,0 -5.01474,-2.02257 -5.01474,-2.02257 0,0 -0.0113,-0.0385 -0.0113,-0.0385 -0.48761,0.89205 -1.74204,2.29053 -2.32558,3.12961 -1.02059,1.45886 -2.62565,2.07505 -4.16894,2.55679 0,0 -0.40952,4.64803 -0.40952,4.64803 0,0 4.1802,-2.76392 4.1802,-2.76392 0,0 3.99068,2.93179 3.99068,2.93179 0,0 -0.48945,-5.66171 -0.48945,-5.66171 0,0 4.24862,-2.77954 4.24862,-2.77954 m 13.26464,-3.97893 c 0,0 -3.95812,-3.169 -3.95812,-3.169 0,0 -1e-5,-0.0406 -1e-5,-0.0406 -0.71056,0.67228 -1.609,1.23184 -2.48785,1.61606 -1.53319,0.66456 -3.63404,1.02045 -5.22639,0.83823 0,0 -1.69314,4.22632 -1.69314,4.22632 0,0 4.60867,-0.92997 4.60867,-0.92997 0,0 3.04865,4.25935 3.04865,4.25935 0,0 1.13628,-5.20308 1.13628,-5.20308 0,0 4.57191,-1.59735 4.57191,-1.59735 m 13.65683,-2.20017 c 0,0 -3.72027,-3.48287 -3.72027,-3.48287 0,0 0.003,-0.0404 0.003,-0.0404 -0.75501,0.60666 -1.60995,1.06209 -2.51895,1.34186 -1.58525,0.48237 -3.40621,0.45904 -4.93514,-0.0782 0,0 -2.57981,3.9503 -2.57981,3.9503 0,0 4.84352,-0.10775 4.84352,-0.10775 0,0 2.51981,4.68682 2.51981,4.68682 0,0 1.72728,-5.05862 1.72728,-5.05862 0,0 4.66076,-1.21111 4.66076,-1.21111 m 13.42264,-2.8097 c 0,0 -3.92078,-2.96198 -3.92078,-2.96198 0,0 -5.1e-4,-0.0406 -5.1e-4,-0.0406 -0.70205,0.68358 -1.37269,1.16102 -2.26865,1.49033 -1.56275,0.56877 -3.27298,0.64731 -4.8095,0.13875 0,0 -2.48378,3.66705 -2.48378,3.66705 0,0 4.77002,0.0705 4.77002,0.0705 0,0 2.57127,4.56709 2.57127,4.56709 0,0 1.67019,-5.14146 1.67019,-5.14146 0,0 4.47174,-1.78968 4.47174,-1.78968 m 11.41693,-7.96479 c 0,0 -4.80404,-0.73524 -4.80404,-0.73524 0,0 -0.0165,-0.036 -0.0165,-0.036 -0.35626,0.96907 -0.86791,1.87017 -1.50749,2.65497 -1.11801,1.36398 -1.97355,1.59188 -3.57152,1.48972 0,0 -1.64964,4.0927 -1.64964,4.0927 0,0 4.596,-1.08363 4.596,-1.08363 0,0 4.44779,2.75507 4.44779,2.75507 0,0 -0.90113,-5.32799 -0.90113,-5.32799 0,0 3.40656,-3.80964 3.40656,-3.80964 m 9.3729,-11.05105 c 0,0 -4.70405,0.53783 -4.70405,0.53783 0,0 -0.0232,-0.0309 -0.0232,-0.0309 -0.15642,1.03489 -0.36734,1.84617 -0.88456,2.73967 -0.90526,1.55409 -2.07642,2.35822 -3.61761,2.84813 0,0 -0.43411,4.55339 -0.43411,4.55339 0,0 4.15703,-2.72527 4.15703,-2.72527 0,0 4.71588,1.76544 4.71588,1.76544 0,0 -1.67899,-5.10236 -1.67899,-5.10236 0,0 2.4696,-4.58598 2.4696,-4.58598 m 5.91049,-13.78574 c 0,0 -4.25445,2.0302 -4.25445,2.0302 0,0 -0.0299,-0.0222 -0.0299,-0.0222 0.10549,1.04314 0.22201,1.60712 -0.12654,2.60027 -0.61176,1.72871 -1.56634,3.49728 -2.85463,4.57537 0,0 0.97189,4.31588 0.97189,4.31588 0,0 3.08011,-4.10395 3.08011,-4.10395 0,0 4.85735,0.0602 4.85735,0.0602 0,0 -2.76563,-4.25896 -2.76563,-4.25896 0,0 1.12178,-5.19679 1.12178,-5.19679 m -2.08124,-14.313208 c 0,0 -1.37141,5.199398 -1.37141,5.199398 0,0 -0.034,0.0125 -0.034,0.0125 0.78262,0.55972 0.97571,0.085 1.26239,1.10336 0.49509,1.77614 0.30095,2.77407 -0.5492,4.3134 0,0 2.32965,3.55301 2.32965,3.55301 0,0 1.39885,-5.02403 1.39885,-5.02403 0,0 4.27302,-2.79353 4.27302,-2.79353 0,0 -4.5822,-1.97138 -4.5822,-1.97138 0,0 -2.72712,-4.392758 -2.72712,-4.392758 m -8.62661,-11.87452 c 0,0 -0.14109,5.42915 -0.14109,5.42915 0,0 -0.0299,0.0221 -0.0299,0.0221 0.88394,0.3091 1.59233,0.70903 2.31649,1.39249 1.25894,1.19511 1.89112,2.6486 2.17801,4.43607 0,0 3.90891,0.86084 3.90891,0.86084 0,0 -1.96057,-4.89965 -1.96057,-4.89965 0,0 2.1504,-4.94543 2.1504,-4.94543 0,0 -4.73749,1.13444 -4.73749,1.13444 0,0 -3.68472,-3.43005 -3.68472,-3.43005 m -11.41332,-8.26585 c 0,0 1.17611,5.19294 1.17611,5.19294 0,0 -0.0235,0.0306 -0.0235,0.0306 0.92473,0.0223 1.73817,0.17506 2.60239,0.59991 1.50415,0.74526 2.6422,1.97616 3.43023,3.55771 0,0 3.91051,-0.73957 3.91051,-0.73957 0,0 -3.23825,-3.80188 -3.23825,-3.80188 0,0 0.7411,-5.44977 0.7411,-5.44977 0,0 -4.21157,2.66611 -4.21157,2.66611 0,0 -4.38707,-2.05607 -4.38707,-2.05607 m -12.70155,-5.96918 c 0,0 1.68133,5.18208 1.68133,5.18208 0,0 -0.0203,0.0334 -0.0203,0.0334 0.92117,-0.0953 1.95546,0.0309 2.87211,0.27623 1.59627,0.43272 3.23344,1.39795 4.36328,2.68485 0,0 3.60911,-1.73659 3.60911,-1.73659 0,0 -4.02332,-2.85902 -4.02332,-2.85902 0,0 -0.27113,-5.43861 -0.27113,-5.43861 0,0 -3.64055,3.51451 -3.64055,3.51451 0,0 -4.57054,-1.65685 -4.57054,-1.65685 m -12.8468,-4.85987 c 0,0 2.36668,4.58082 2.36668,4.58082 0,0 -0.0152,0.0367 -0.0152,0.0367 0.89516,-0.26411 1.65855,-0.3619 2.58995,-0.20355 1.62236,0.28122 2.83952,1.16783 3.90729,2.52135 0,0 3.81072,-1.60015 3.81072,-1.60015 0,0 -4.00979,-2.99925 -4.00979,-2.99925 0,0 -0.43293,-5.50017 -0.43293,-5.50017 0,0 -3.51617,3.75931 -3.51617,3.75931 0,0 -4.70053,-0.59505 -4.70053,-0.59505 m -13.72723,-2.14673 c 0,0 2.80991,4.78586 2.80991,4.78586 0,0 -0.0124,0.038 -0.0124,0.038 0.87161,-0.35142 2.07439,-0.52712 3.01396,-0.60077 1.6376,-0.12301 3.22995,0.27665 4.58986,1.23476 0,0 3.26281,-2.7954 3.26281,-2.7954 0,0 -4.59108,-1.51884 -4.59108,-1.51884 0,0 -1.66451,-5.17661 -1.66451,-5.17661 0,0 -2.56026,4.53519 -2.56026,4.53519 0,0 -4.84833,-0.50224 -4.84833,-0.50224 m -13.44239,-1.53295 c 0,0 3.2786,3.98103 3.2786,3.98103 0,0 -0.008,0.0397 -0.008,0.0397 0.81908,-0.48782 1.61923,-0.80626 2.55609,-0.91557 1.63306,-0.18517 2.8841,0.25931 4.17756,1.32942 0,0 3.29395,-2.40716 3.29395,-2.40716 0,0 -4.33455,-1.99047 -4.33455,-1.99047 0,0 -1.68314,-5.21438 -1.68314,-5.21438 0,0 -2.52285,4.64739 -2.52285,4.64739 0,0 -4.75816,0.53008 -4.75816,0.53008 m -13.732581,0.48056 c 0,0 3.869351,3.6871 3.869351,3.6871 0,0 -0.002,0.0405 -0.002,0.0405 0.7467,-0.61966 1.15595,-1.06761 2.08698,-1.22874 1.62314,-0.27551 3.32637,-0.026 4.77046,0.75754 0,0 3.01008,-3.21622 3.01008,-3.21622 0,0 -4.75059,-0.93771 -4.75059,-0.93771 0,0 -2.03647,-4.98081 -2.03647,-4.98081 0,0 -2.20256,4.80671 -2.20256,4.80671 0,0 -4.744981,1.07165 -4.744981,1.07165 m -13.57362,1.54794 c 0,0 4.36951,3.1724 4.36951,3.1724 0,0 0.003,0.0404 0.003,0.0404 0.65463,-0.74164 0.91878,-1.20094 1.82496,-1.49199 1.5804,-0.50204 2.9648,-0.26815 4.41957,0.48944 0,0 2.9657,-3.23757 2.9657,-3.23757 0,0 -4.76452,-0.88988 -4.76452,-0.88988 0,0 -2.39843,-4.83016 -2.39843,-4.83016 0,0 -1.81146,5.16594 -1.81146,5.16594 0,0 -4.60853,1.58143 -4.60853,1.58143 m -13.53726,2.6563 c 0,0 3.99345,3.15356 3.99345,3.15356 0,0 2.3e-4,0.0406 2.3e-4,0.0406 0.70689,-0.67724 1.45137,-1.19951 2.34301,-1.54378 1.55529,-0.59487 3.23329,-0.64242 4.77022,-0.13517 0,0 2.49707,-3.65628 2.49707,-3.65628 0,0 -4.80961,-0.1272 -4.80961,-0.1272 0,0 -2.77572,-4.52647 -2.77572,-4.52647 0,0 -1.43927,5.18071 -1.43927,5.18071 0,0 -4.57938,1.61407 -4.57938,1.61407 m -13.36685,3.39185 c 0,0 4.03927,2.85714 4.03927,2.85714 0,0 0.002,0.0405 0.002,0.0405 0.68193,-0.70939 1.36372,-1.25124 2.24666,-1.62325 1.54025,-0.64326 3.2674,-0.75711 4.82251,-0.32718 0,0 2.34302,-3.82764 2.34302,-3.82764 0,0 -4.80005,0.16343 -4.80005,0.16343 0,0 -2.7646,-4.43877 -2.7646,-4.43877 0,0 -1.43518,5.22236 -1.43518,5.22236 0,0 -4.45331,1.93341 -4.45331,1.93341 m -12.64833,5.58353 c 0,0 4.51387,1.81858 4.51387,1.81858 0,0 0.01,0.0391 0.01,0.0391 0.52704,-0.86295 0.41263,-1.58327 1.28234,-1.99322 1.51737,-0.70944 3.3721,-1.1554 4.95642,-0.89708 0,0 2.01748,-4.05197 2.01748,-4.05197 0,0 -4.7733,0.67269 -4.7733,0.67269 0,0 -3.16934,-4.10248 -3.16934,-4.10248 0,0 -0.85144,5.55135 -0.85144,5.55135 0,0 -3.98556,2.96304 -3.98556,2.96304 m -10.826094,9.38136 c 0,0 4.927994,0.43587 4.927994,0.43587 0,0 0.0184,0.0348 0.0184,0.0348 0.30424,-0.99165 0.55758,-1.77175 1.20622,-2.54669 1.13374,-1.34672 2.77245,-2.13061 4.33081,-2.54469 0,0 0.56875,-4.3076 0.56875,-4.3076 0,0 -4.23772,2.38116 -4.23772,2.38116 0,0 -4.39838,-2.83876 -4.39838,-2.83876 0,0 0.87646,5.38555 0.87646,5.38555 0,0 -3.292533,4.00039 -3.292533,4.00039 m -8.299685,11.99705 c 0,0 4.719758,-0.78512 4.719758,-0.78512 0,0 0.02454,0.0294 0.02454,0.0294 0.109669,-1.04259 0.622975,-2.47297 0.940502,-3.4794 0.557753,-1.752 1.959691,-2.31149 3.374718,-3.16042 0,0 -0.47828,-4.19058 -0.47828,-4.19058 0,0 -3.521675,3.30008 -3.521675,3.30008 0,0 -4.171176,-2.1603 -4.171176,-2.1603 0,0 1.392247,5.71274 1.392247,5.71274 0,0 -2.28064,4.73353 -2.28064,4.73353 M 20.015042,112.3801 c 0,0 3.604293,-2.9274 3.604293,-2.9274 0,0 0.03317,0.0151 0.03317,0.0151 -0.28547,-0.99874 -0.411626,-1.56848 -0.259983,-2.62356 0.268897,-1.83773 1.029727,-2.89996 2.318823,-3.97689 0,0 -1.137692,-4.478468 -1.137692,-4.478468 0,0 -2.88081,4.272068 -2.88081,4.272068 0,0 -4.9038,0.31572 -4.9038,0.31572 0,0 3.235298,4.0884 3.235298,4.0884 0,0 -0.0093,5.31506 -0.0093,5.31506 m 2.852464,14.70576 c 0,0 1.849345,-4.90995 1.849345,-4.90995 0,0 0.03504,-0.008 0.03504,-0.008 -0.719415,-0.65984 -1.08493,-0.93535 -1.43728,-1.92681 -0.609643,-1.72971 -0.682299,-2.95557 -0.04599,-4.62262 0,0 -2.794912,-3.23212 -2.794912,-3.23212 0,0 -0.774377,5.34613 -0.774377,5.34613 0,0 -3.81944,3.69317 -3.81944,3.69317 0,0 4.67786,0.97541 4.67786,0.97541 0,0 2.309754,4.68472 2.309754,4.68472 m 8.843342,11.25589 c 0,0 -0.338756,-5.26664 -0.338756,-5.26664 0,0 0.0279,-0.0253 0.0279,-0.0253 -0.906138,-0.21056 -1.517265,-0.38451 -2.266775,-1.03177 -1.303252,-1.13219 -1.805078,-2.16464 -1.966775,-3.97223 0,0 -3.89111,-1.19821 -3.89111,-1.19821 0,0 1.777355,4.92195 1.777355,4.92195 0,0 -2.012245,5.0907 -2.012245,5.0907 0,0 4.696235,-1.37698 4.696235,-1.37698 0,0 3.974164,2.8585 3.974164,2.8585 m 11.764239,7.84963 c 0,0 -0.90653,-4.83058 -0.90653,-4.83058 0,0 0.0257,-0.0282 0.0257,-0.0282 -0.91942,-0.11303 -2.05724,-0.50299 -2.92849,-0.90902 -1.51645,-0.71249 -2.82777,-1.93133 -3.69952,-3.45524 0,0 -4.012096,0.93195 -4.012096,0.93195 0,0 3.585706,3.6477 3.585706,3.6477 0,0 -0.525,5.47664 -0.525,5.47664 0,0 4.08278,-2.81592 4.08278,-2.81592 0,0 4.37746,1.98264 4.37746,1.98264 m 12.45559,6.34933 c 0,0 -1.86452,-4.87558 -1.86452,-4.87558 0,0 0.0191,-0.0343 0.0191,-0.0343 -0.91725,0.13526 -1.40095,0.0487 -2.28943,-0.30554 -1.54671,-0.62237 -3.16282,-1.79696 -4.19585,-3.18483 0,0 -3.94563,1.57157 -3.94563,1.57157 0,0 4.03273,3.04157 4.03273,3.04157 0,0 -0.23447,5.43629 -0.23447,5.43629 0,0 3.92783,-2.99669 3.92783,-2.99669 0,0 4.5502,1.34746 4.5502,1.34746 m 13.49826,2.60238 c 0,0 -2.99346,-4.47568 -2.99346,-4.47568 0,0 0.0106,-0.0387 0.0106,-0.0387 -0.85486,0.40108 -1.7071,0.64615 -2.64872,0.66703 -1.64096,0.031 -3.04827,-0.50682 -4.31866,-1.61195 0,0 -3.41745,2.35778 -3.41745,2.35778 0,0 4.35963,2.09618 4.35963,2.09618 0,0 1.42216,5.31446 1.42216,5.31446 0,0 2.75683,-4.44533 2.75683,-4.44533 0,0 4.82902,0.13623 4.82902,0.13623 m 13.89706,4.03895 c 0,0 -2.99765,-6.13348 -2.99765,-6.13348 0,0 0.013,-0.0378 0.013,-0.0378 -0.87741,0.33209 -1.94669,0.45533 -2.88842,0.46734 -1.6411,0.0156 -3.31501,-0.49601 -4.65337,-1.49257 0,0 -3.28268,2.64654 -3.28268,2.64654 0,0 4.51634,1.74042 4.51634,1.74042 0,0 1.40591,5.24327 1.40591,5.24327 0,0 2.79067,-4.38482 2.79067,-4.38482 0,0 5.09618,1.95108 5.09618,1.95108"
       style="fill:#ffdd55;fill-opacity:1;stroke:#3a4dc4;stroke-width:0.07788665;stroke-opacity:0.69803922"
       inkscape:connector-curvature="0" />
  </g>
</svg>
